<?xml version="1.0" encoding="UTF-8"?>
<svg id="_图层_1" data-name="图层 1" xmlns="http://www.w3.org/2000/svg" viewBox="0 0 1920 1080">
  <path d="M1,711c5.98-.27,11.95-.68,17.93-.79,11.07-.2,21.84,2.15,32.47,4.74,13.61,3.31,26.77,8.19,39.31,14.43,14.91,7.42,29.45,15.52,42.79,25.61,8.1,6.12,16.48,11.89,24.65,17.92,5.47,4.04,10.89,8.16,16.17,12.45,5.54,4.5,12.03,7.02,18.51,9.63,1.82,.73,3.57,1.64,6.16,2.85,.72-.22,2.24-.67,3.97-1.18-1.18-4.09-3.19-6.94-6.34-9.11-2.32-1.6-4.7-3.22-6.69-5.2-7.93-7.94-9.45-17.77-7.32-28.25,2.11-10.41,7.26-19.64,12.6-28.7,2.7-4.58,5.82-8.92,8.81-13.33,.89-1.31,1.98-2.49,3.75-3.27-.29,.68-.53,1.39-.88,2.04-4.78,9.13-9.77,18.16-14.31,27.41-5.83,11.89-5.66,24.37-2.67,36.96,.85,3.6,4.19,8.11,7.87,10.72-.14-1.71-.17-2.9-.34-4.07-.72-5.1-2.15-10.2-2.07-15.28,.1-6.27,.99-12.62,2.33-18.77,2.86-13.08,7.53-25.5,14.69-36.94,3.43-5.48,6.39-11.26,9.56-16.9,.16-.29,.48-.6,.45-.88-.48-4.52,3.07-6.52,5.55-9.31,4.5-5.05,8.73-10.33,13.83-16.41-1.97,.25-2.76,.18-3.42,.45-12.06,4.94-23.75,10.63-33.97,18.86-10.66,8.58-20.69,17.84-27.02,30.29-1.65,3.24-2.78,6.75-4.08,10.16-.7,1.83-.97,3.96-3.79,4.04,.62-12.27,6.04-22.26,14.01-31.17,9.01-10.08,20.1-17.44,31.74-23.94,12.35-6.9,25-13.25,37.52-19.85,6.17-3.26,12.22-6.8,18.53-9.74,7.93-3.7,16.38-5.44,25.18-5.48,3.81-.02,7.61-.59,11.42-.65,1.71-.03,3.44,.58,5.35,.94,.58-2.21-.65-3.73-2.15-4.62-2.54-1.51-5.22-3.08-8.05-3.75-7.61-1.79-15.3-2.94-23.2-2.95-5.43,0-10.98-.81-16.25-2.13-3.76-.94-7.19-3.28-10.71-5.11-.57-.3-.82-1.22-1.86-2.88,7.79,3.86,14.69,1.1,21.56,.94,14.02-.32,27.6,.67,39.16,10.07,3.87,3.15,6.8,6.74,7.73,10.87,9.08,4.04,17.93,7.18,25.98,11.72,16.56,9.34,26.24,24.19,30.82,42.38,1.16,4.59,1.95,9.67-2.8,13.31-4.28-1.21-6.76,.07-7.49,4.28-.6,3.47-.6,6.98,1.16,10.24,4.9,9.08,9.72,18.21,14.8,27.19,.66,1.16,2.64,2.09,4.07,2.2,7.37,.55,13.42,3.67,18.45,8.9,4.5,4.69,10.4,6.31,16.37,8,3.81,1.08,7.69,2.34,11.1,4.27,5.3,3,7.97,7.83,7.77,14.11-.13,3.79-.02,7.59-.02,11.55,1.56,2.29,3.2,4.79,4.96,7.22,3.32,4.59,7.45,7.92,13.25,9.02,7.98,1.51,15.89,3.37,23.86,4.93,3.08,.6,6.24,.76,9.36,1.13,6.04,.73,10.86,3.81,15.26,7.78,3.09,2.79,6.08,5.72,9.45,8.14,4.86,3.49,9.7,6.96,13.97,11.17,1.88,1.85,3.68,3.8,5.65,5.55,2.6,2.3,5.09,4.84,8.04,6.59,10.04,5.96,16.99,14.25,20.46,25.43,.54,1.74,1.36,3.39,1.83,5.14,1.75,6.4-.37,11.73-4.8,16.43-.44,.1-.91,.29-1.4,.31-13.32,.35-26.64,.74-39.97,1.02-23.65,.49-47.31,.91-70.96,1.38-11.82,.24-23.65,.55-35.47,.82-16.82,.38-33.64,.74-50.47,1.12-13.99,.31-27.98,.63-41.97,.95-15.32,.35-30.64,.69-45.97,1.04-14.16,.32-28.31,.64-42.47,.96-15.49,.35-30.98,.7-46.47,1.05-13.16,.3-26.31,.61-39.47,.9-1.59,.04-3.18,0-5.7,0,2.55-3.61,4.48-6.48,6.55-9.24,5.5-7.3,11.02-14.57,16.62-21.78,1.11-1.42,2.62-2.53,3.97-3.76,1.48-1.34,3.13-2.52,4.46-3.99,4.43-4.94,8.83-9.91,13.06-15.03,1.23-1.49,2.11-3.41,2.65-5.28,1.05-3.67,3.06-6.57,5.8-9.14,5.94-5.58,11.79-11.25,17.67-16.9,1.15-1.11,2.25-2.29,3.85-3.93-1.59-.55-2.47-1.15-3.31-1.11-10.54,.59-20.47-2.54-30.39-5.24-8.5-2.31-16.91-5.14-25.09-8.4-8.5-3.39-17.16-3.6-26.01-3.06-4.78,.29-9.57,.56-14.35,.88-6.97,.46-13.99,.55-20.89,1.53-8.77,1.24-16.97,4.57-24.89,8.41-7.16-10.36-13.84-20.87-21.37-30.73-12.79-16.75-27.73-31.46-44.67-44.06-1.06-.79-2.25-1.42-3.38-2.13,0-11.33,0-22.67,0-34Z"/>
  <path d="M255,1081v-19.52c2.01-.13,3.6-.3,5.18-.34,16.64-.41,33.28-.82,49.92-1.18,17.97-.39,35.95-.72,53.92-1.08,16.14-.32,32.28-.66,48.43-.98,14.81-.29,29.62-.56,44.43-.88,1.95-.04,3.89-.35,6.02-.55,.35,.41,1.01,.85,1.16,1.41,2.02,7.69,3.97,15.4,5.93,23.1H255Z"/>
</svg>