<?xml version="1.0" encoding="UTF-8"?>
<svg id="_图层_1" data-name="图层 1" xmlns="http://www.w3.org/2000/svg" viewBox="0 0 1919 867.81">
  <path d="M1919,493c-1,.83-2.1,1.58-2.99,2.52-29.38,30.92-58.71,61.9-88.12,92.8-22.86,24.01-45.88,47.87-68.74,71.9-22.85,24.02-45.56,48.17-68.37,72.23-8.6,9.07-17.33,18-25.93,27.06-17.55,18.47-35.06,36.99-52.59,55.48-6.53,6.89-13.06,13.78-19.63,20.63-9.8,10.21-19.65,20.38-29.49,30.56-.45,.46-.99,.83-1.96,1.65-1.07-5.88-2.12-11.29-3.03-16.73-1.86-11.07-3.62-22.16-5.46-33.24-1.84-11.07-3.69-22.14-5.58-33.2-1.86-10.9-3.81-21.78-5.66-32.67-1.82-10.73-3.53-21.49-5.33-32.22-1.85-11.05-3.72-22.1-5.63-33.15-1.01-5.85-2.23-11.67-3.08-17.55-.22-1.53,.47-3.25,.97-4.81,18.33-56.66,36.68-113.31,55.03-169.97,52.81-162.99,105.64-325.98,158.43-488.98,.55-1.71,.78-3.53,1.16-5.29,58.62,0,117.25,0,176,0V493Z" style="fill: #fff;"/>
  <path d="M0,284c14.82,4.35,29.63,8.78,44.48,13.05,107.22,30.86,214.44,61.69,321.66,92.53,20.4,5.87,40.81,11.71,61.21,17.58,1.42,.41,2.79,.95,4.35,1.49-13.24,96.34-26.47,192.55-39.79,289.5-5.27-.72-10.25-1.41-14.88-2.04-4.98-17.6-13.79-31.98-28.63-41.56-7.73-4.99-16.82-7.89-25.31-11.7-1.05-.47-2.18-.78-3.12-1.12-4.27-11.23-13.4-16.33-23.87-19.64-9.7-3.07-19.68-3.01-29.7-1.98-2.81,.29-5.64,.81-8.44,.71-2.6-.09-5.18-.87-8.16-1.43-.22,3.19,1.77,4.78,4.1,6.1,6.68,3.81,14.03,5.03,21.56,5.71,8.77,.79,17.56,1.56,26.29,2.75,3.51,.48,7.16,1.57,9.85,5.94-5.05,0-9.42,.12-13.79-.02-14.51-.48-27.41,4.63-39.88,11.33-11.29,6.07-22.78,11.79-33.87,18.2-5.41,3.13-10.47,3.68-16.58,2.75-30.58-4.63-61.22-8.8-91.84-13.14-30.47-4.31-60.93-8.66-91.4-12.93-8.06-1.13-16.15-2.07-24.23-3.1,0-119.67,0-239.33,0-359Z" style="fill: #fff;"/>
  <path d="M1,23c8.63,3.44,17.31,6.77,25.89,10.33,108.47,44.95,216.93,89.93,325.38,134.91,11.03,4.58,22.04,9.21,33.06,13.83,.9,.38,1.77,.84,3.07,1.46-7.57,55.94-15.14,111.87-22.68,167.66-2.95,2.21-5.79,1.36-8.67,.48-66.98-20.44-133.96-40.87-200.95-61.29-50.92-15.52-101.84-31.01-152.76-46.53-.79-.24-1.56-.57-2.34-.86,0-73.33,0-146.67,0-220Z" style="fill: #fff;"/>
  <path d="M1706,0c-3.37,10.54-6.83,21.05-10.08,31.63-24.5,79.63-48.95,159.27-73.42,238.91-19.9,64.78-39.78,129.56-59.7,194.33-10.61,34.51-21.28,69.01-31.93,103.51-.38,1.24-.87,2.45-1.6,4.47-.8-3.88-1.54-7.01-2.09-10.17-2.33-13.28-4.64-26.56-6.88-39.85-2.11-12.5-4.06-25.03-6.21-37.53-2.18-12.65-4.58-25.27-6.75-37.92-1.84-10.74-3.45-21.53-5.23-32.28-1.73-10.41-3.53-20.81-5.33-31.21-2.2-12.68-4.45-25.35-6.63-38.04-1.15-6.68-2.25-13.37-3.3-20.07-.2-1.25-.21-2.55-.09-3.81,.76-7.91,1.55-15.82,2.38-23.72,.86-8.23,1.8-16.45,2.68-24.68,.79-7.41,1.53-14.83,2.31-22.24,.92-8.73,1.89-17.45,2.78-26.18,.79-7.75,1.44-15.51,2.24-23.26,.82-8.08,1.77-16.14,2.61-24.21,.83-7.92,1.56-15.84,2.39-23.75,.84-8.08,1.74-16.15,2.59-24.23,.82-7.75,1.58-15.51,2.4-23.26,.89-8.41,1.83-16.81,2.7-25.22,.79-7.59,1.51-15.19,2.3-22.78,.87-8.41,1.81-16.82,2.69-25.23,.79-7.59,1.56-15.19,2.3-22.79,.34-3.46,.59-6.93,.89-10.4,62,0,124,0,186,0Z" style="fill: #fff;"/>
  <path d="M1128,1c4.8,3.52,9.54,7.13,14.4,10.55,10.89,7.66,21.81,15.26,32.78,22.79,2.31,1.59,4.07,3.1,3.84,6.32-.23,3.31,1.91,5.3,4.64,7.05,20.57,13.22,41.04,26.6,61.6,39.84,2.68,1.73,4.25,3.56,4.64,7,1.73,15.02,3.8,30.01,5.81,45,1.91,14.31,3.95,28.61,5.83,42.92,1.53,11.67,2.89,23.37,4.35,35.05,.29,2.28,.71,4.55,1.19,7.6-2.15-1.35-3.68-2.26-5.15-3.26-25.33-17.2-50.54-34.59-76.07-51.48-5.44-3.6-7.93-7.55-6.91-14.19,3.73,3.64,7.06,.9,11.45-.57-2.08-1.47-3.57-2.61-5.14-3.62-53.99-34.75-107.99-69.48-161.98-104.22-.98-.63-1.89-1.41-2.94-1.87-3.32-1.46-4.32-3.87-4.3-7.5,.04-11.32-.33-22.65-.58-33.97-.03-1.15-.3-2.29-.46-3.43,37.67,0,75.33,0,113,0Z" style="fill: #fff;"/>
  <path d="M799.43,790.85c5.48-76,10.93-151.51,16.41-227.56,90.42-13.93,180.54-27.81,271.26-41.79,2.76,83.31,5.5,166.02,8.26,249.19-2.81,.4-5.22,.91-7.66,1.07-12.95,.87-25.91,1.65-38.87,2.48-6.81,.43-13.63,.87-20.44,1.32-16.27,1.09-32.55,2.14-48.82,3.29-18.25,1.3-36.49,2.78-54.75,4.02-13.28,.91-26.58,1.46-39.86,2.36-13.95,.95-27.88,2.16-41.82,3.18-7.3,.53-14.61,.9-21.92,1.34-5.81,.36-11.62,.74-17.43,1.08-1.29,.08-2.59,.01-4.37,.01Z" style="fill: #fff;"/>
  <path d="M593.59,737.94c-62.04-7.74-123.48-15.41-185.62-23.17,10.74-81.82,21.45-163.38,32.22-245.42,58.75,14.95,117.17,29.82,176.26,44.86-7.62,74.54-15.21,148.82-22.86,223.73Z" style="fill: #fff;"/>
  <path d="M843.44,283.56c-4.54-2.17-8.1-3.88-12.09-5.79-3.52,52.16-7,103.87-10.48,155.52-.48,.07-.71,.18-.8,.11-5.94-4.35-11.93-2.72-18.33-.83-31.25,9.19-62.6,18.07-93.92,27.04-2.05,.59-4.15,1.02-6.72,1.65,0-2.39-.13-4.34,.02-6.27,1.49-18.93,3.1-37.86,4.44-56.8,.16-2.23-1.19-4.56-1.73-6.86-1.06-4.54-2.05-9.1-3.06-13.66-4.29-19.35-8.59-38.69-12.86-58.04-5.92-26.78-11.89-53.55-17.63-80.37-.69-3.22-2.17-4.91-5.06-6.01-2.64-1-5.15-2.33-8.21-3.75,.45-6.29,.89-12.72,1.38-19.15,.28-3.65,.65-7.29,.93-10.93,.22-2.96,1.5-4.51,4.61-5.46,46.38-14.17,92.71-28.52,139.05-42.8,17.72-5.46,35.45-10.87,53.18-16.28,1.05-.32,2.14-.52,3.8-.91-1.34,15.01-2.64,29.54-3.9,43.66-.53,.63-.69,1-.96,1.1-5.19,1.87-6.19,5.69-6.36,10.91-.5,14.97-1.75,29.91-2.61,44.87-.82,14.3-1.5,28.61-2.25,42.92-.09,1.77-.24,3.53-.43,6.15Z" style="fill: #fff;"/>
  <path d="M802.62,711.44c-.95,14.36-1.85,27.93-2.76,41.75-2.84,.41-5.26,.76-8.18,1.18-1.78,27.11-3.56,54.12-5.38,81.68-30.15,1.8-59.97,3.58-90.48,5.4,2.84-39.7,5.64-78.77,8.5-118.62,32.58-3.78,65.17-7.56,98.29-11.41Z" style="fill: #fff;"/>
</svg>